<svg width="20" height="20" viewBox="0 0 20 20" fill="none" xmlns="http://www.w3.org/2000/svg">
<path d="M7.19495 2.49437L6.77971 2.02723V2.02723L7.19495 2.49437ZM12.8077 2.49437L13.2229 2.02723V2.02723L12.8077 2.49437ZM12.6279 2.33455L12.2126 2.80169L12.6279 2.33455ZM7.37474 2.33455L7.78998 2.80169V2.80169L7.37474 2.33455ZM3.38553 17.5374L3.7529 17.0318L3.38553 17.5374ZM2.46373 16.6156L2.96938 16.2482L2.46373 16.6156ZM17.5389 16.6156L17.0332 16.2482L17.5389 16.6156ZM16.6171 17.5374L16.2497 17.0318L16.6171 17.5374ZM18.3346 6.65394H17.7096V10.8332H18.3346H18.9596V6.65394H18.3346ZM10.8346 18.3332V17.7082H9.16797V18.3332V18.9582H10.8346V18.3332ZM1.66797 10.8332H2.29298V6.65395H1.66797H1.04296V10.8332H1.66797ZM12.6279 2.33455L12.2126 2.80169L12.3924 2.96151L12.8077 2.49437L13.2229 2.02723L13.0431 1.86741L12.6279 2.33455ZM7.19495 2.49437L7.61018 2.96151L7.78998 2.80169L7.37474 2.33455L6.95951 1.86741L6.77971 2.02723L7.19495 2.49437ZM4.98875 3.33317V3.95818C5.95512 3.95818 6.8879 3.60354 7.61018 2.96151L7.19495 2.49437L6.77971 2.02723C6.28625 2.46587 5.64898 2.70816 4.98875 2.70816V3.33317ZM12.8077 2.49437L12.3924 2.96151C13.1147 3.60354 14.0475 3.95818 15.0139 3.95818V3.33317V2.70816C14.3536 2.70816 13.7164 2.46587 13.2229 2.02723L12.8077 2.49437ZM12.6279 2.33455L13.0431 1.86741C11.3084 0.325431 8.69424 0.325431 6.95951 1.86741L7.37474 2.33455L7.78998 2.80169C9.05109 1.6807 10.9515 1.6807 12.2126 2.80169L12.6279 2.33455ZM9.16797 18.3332V17.7082C7.59166 17.7082 6.45963 17.7073 5.58301 17.6123C4.71808 17.5186 4.17624 17.3393 3.7529 17.0318L3.38553 17.5374L3.01816 18.0431C3.6901 18.5312 4.47708 18.7498 5.44836 18.8551C6.40795 18.959 7.6195 18.9582 9.16797 18.9582V18.3332ZM1.66797 10.8332H1.04296C1.04296 12.3816 1.0421 13.5932 1.14606 14.5528C1.2513 15.5241 1.4699 16.311 1.95809 16.983L2.46373 16.6156L2.96938 16.2482C2.6618 15.8249 2.48252 15.2831 2.38881 14.4181C2.29384 13.5415 2.29298 12.4095 2.29298 10.8332H1.66797ZM3.38553 17.5374L3.7529 17.0318C3.45223 16.8133 3.18782 16.5489 2.96938 16.2482L2.46373 16.6156L1.95809 16.983C2.25364 17.3898 2.61137 17.7475 3.01816 18.0431L3.38553 17.5374ZM18.3346 10.8332H17.7096C17.7096 12.4095 17.7088 13.5415 17.6138 14.4181C17.5201 15.2831 17.3408 15.8249 17.0332 16.2482L17.5389 16.6156L18.0445 16.983C18.5327 16.311 18.7513 15.5241 18.8565 14.5528C18.9605 13.5932 18.9596 12.3816 18.9596 10.8332H18.3346ZM10.8346 18.3332V18.9582C12.3831 18.9582 13.5947 18.959 14.5542 18.8551C15.5255 18.7498 16.3125 18.5312 16.9844 18.0431L16.6171 17.5374L16.2497 17.0318C15.8264 17.3393 15.2845 17.5186 14.4196 17.6123C13.543 17.7073 12.4109 17.7082 10.8346 17.7082V18.3332ZM17.5389 16.6156L17.0332 16.2482C16.8148 16.5489 16.5504 16.8133 16.2497 17.0318L16.6171 17.5374L16.9844 18.0431C17.3912 17.7475 17.749 17.3898 18.0445 16.983L17.5389 16.6156ZM18.3346 6.65394H18.9596C18.9596 4.47475 17.1931 2.70816 15.0139 2.70816V3.33317V3.95818C16.5027 3.95818 17.7096 5.16511 17.7096 6.65394H18.3346ZM1.66797 6.65395H2.29298C2.29298 5.16511 3.49992 3.95818 4.98875 3.95818V3.33317V2.70816C2.80955 2.70816 1.04296 4.47475 1.04296 6.65395H1.66797ZM6.66797 10.8332H6.04296C6.04296 13.0193 7.81517 14.7915 10.0013 14.7915V14.1665V13.5415C8.50554 13.5415 7.29298 12.3289 7.29298 10.8332H6.66797ZM10.0013 14.1665V14.7915C12.1874 14.7915 13.9596 13.0193 13.9596 10.8332H13.3346H12.7096C12.7096 12.3289 11.4971 13.5415 10.0013 13.5415V14.1665ZM13.3346 10.8332H13.9596C13.9596 8.64704 12.1874 6.87482 10.0013 6.87482V7.49984V8.12485C11.4971 8.12485 12.7096 9.3374 12.7096 10.8332H13.3346ZM10.0013 7.49984V6.87482C7.81517 6.87482 6.04296 8.64704 6.04296 10.8332H6.66797H7.29298C7.29298 9.3374 8.50554 8.12485 10.0013 8.12485V7.49984Z" fill="#666666"/>
<path d="M14.168 6.66536C14.168 7.1256 14.5411 7.4987 15.0013 7.4987C15.4615 7.4987 15.8346 7.1256 15.8346 6.66536C15.8346 6.20513 15.4615 5.83203 15.0013 5.83203C14.5411 5.83203 14.168 6.20513 14.168 6.66536Z" fill="#666666"/>
</svg>
