<svg width="24" height="24" viewBox="0 0 24 24" fill="none" xmlns="http://www.w3.org/2000/svg">
<path d="M12.5607 16.7638L20.7861 8.27781C20.9234 8.13622 21 7.9481 21 7.75248C21 7.55686 20.9234 7.36874 20.7861 7.22715L20.7768 7.21801C20.7102 7.14913 20.6301 7.09429 20.5413 7.05681C20.4525 7.01933 20.3568 7 20.2602 7C20.1635 7 20.0679 7.01933 19.9791 7.05681C19.8903 7.09429 19.8102 7.14913 19.7436 7.21801L11.9985 15.2092L4.25641 7.21801C4.18984 7.14913 4.10972 7.09429 4.02091 7.05681C3.9321 7.01933 3.83646 7 3.73981 7C3.64316 7 3.54752 7.01933 3.45871 7.05681C3.3699 7.09429 3.28978 7.14913 3.22321 7.21801L3.21391 7.22715C3.0766 7.36874 3 7.55686 3 7.75248C3 7.9481 3.0766 8.13622 3.21391 8.27781L11.4393 16.7638C11.5116 16.8385 11.5986 16.8979 11.695 16.9385C11.7914 16.9791 11.8951 17 12 17C12.1049 17 12.2086 16.9791 12.305 16.9385C12.4014 16.8979 12.4884 16.8385 12.5607 16.7638Z" fill="#444444"/>
</svg>
