<svg width="20" height="20" viewBox="0 0 20 20" fill="none" xmlns="http://www.w3.org/2000/svg">
<path d="M7.19397 2.49437L6.77874 2.02723V2.02723L7.19397 2.49437ZM12.8067 2.49437L13.2219 2.02723V2.02723L12.8067 2.49437ZM12.6269 2.33455L12.2116 2.80169L12.6269 2.33455ZM7.37377 2.33455L7.789 2.80169V2.80169L7.37377 2.33455ZM3.38455 17.5374L3.75193 17.0318L3.38455 17.5374ZM2.46275 16.6156L2.9684 16.2482L2.46275 16.6156ZM17.5379 16.6156L17.0323 16.2482L17.5379 16.6156ZM16.6161 17.5374L16.2487 17.0318L16.6161 17.5374ZM17.7086 6.65394V10.8332H18.9587V6.65394H17.7086ZM10.8337 17.7082H9.16699V18.9582H10.8337V17.7082ZM2.292 10.8332V6.65395H1.04198V10.8332H2.292ZM12.2116 2.80169L12.3914 2.96151L13.2219 2.02723L13.0421 1.86741L12.2116 2.80169ZM7.60921 2.96151L7.789 2.80169L6.95853 1.86741L6.77874 2.02723L7.60921 2.96151ZM4.98777 3.95818C5.95415 3.95818 6.88693 3.60354 7.60921 2.96151L6.77874 2.02723C6.28527 2.46587 5.648 2.70816 4.98777 2.70816V3.95818ZM12.3914 2.96151C13.1137 3.60354 14.0465 3.95818 15.0129 3.95818V2.70816C14.3527 2.70816 13.7154 2.46587 13.2219 2.02723L12.3914 2.96151ZM13.0421 1.86741C11.3074 0.325431 8.69326 0.325431 6.95853 1.86741L7.789 2.80169C9.05012 1.6807 10.9505 1.6807 12.2116 2.80169L13.0421 1.86741ZM9.16699 17.7082C7.59068 17.7082 6.45865 17.7073 5.58203 17.6123C4.71711 17.5186 4.17526 17.3393 3.75193 17.0318L3.01718 18.0431C3.68912 18.5312 4.47611 18.7498 5.44739 18.8551C6.40697 18.959 7.61853 18.9582 9.16699 18.9582V17.7082ZM1.04198 10.8332C1.04198 12.3816 1.04112 13.5932 1.14509 14.5528C1.25032 15.5241 1.46892 16.311 1.95711 16.983L2.9684 16.2482C2.66083 15.8249 2.48155 15.2831 2.38784 14.4181C2.29286 13.5415 2.292 12.4095 2.292 10.8332H1.04198ZM3.75193 17.0318C3.45126 16.8133 3.18685 16.5489 2.9684 16.2482L1.95711 16.983C2.25266 17.3898 2.61039 17.7475 3.01718 18.0431L3.75193 17.0318ZM17.7086 10.8332C17.7086 12.4095 17.7078 13.5415 17.6128 14.4181C17.5191 15.2831 17.3398 15.8249 17.0323 16.2482L18.0435 16.983C18.5317 16.311 18.7503 15.5241 18.8556 14.5528C18.9595 13.5932 18.9587 12.3816 18.9587 10.8332H17.7086ZM10.8337 18.9582C12.3821 18.9582 13.5937 18.959 14.5533 18.8551C15.5245 18.7498 16.3115 18.5312 16.9835 18.0431L16.2487 17.0318C15.8254 17.3393 15.2835 17.5186 14.4186 17.6123C13.542 17.7073 12.41 17.7082 10.8337 17.7082V18.9582ZM17.0323 16.2482C16.8138 16.5489 16.5494 16.8133 16.2487 17.0318L16.9835 18.0431C17.3903 17.7475 17.748 17.3898 18.0435 16.983L17.0323 16.2482ZM18.9587 6.65394C18.9587 4.47475 17.1921 2.70816 15.0129 2.70816V3.95818C16.5017 3.95818 17.7086 5.16511 17.7086 6.65394H18.9587ZM2.292 6.65395C2.292 5.16511 3.49894 3.95818 4.98777 3.95818V2.70816C2.80857 2.70816 1.04198 4.47475 1.04198 6.65395H2.292ZM6.04198 10.8332C6.04198 13.0193 7.81419 14.7915 10.0003 14.7915V13.5415C8.50456 13.5415 7.292 12.3289 7.292 10.8332H6.04198ZM10.0003 14.7915C12.1865 14.7915 13.9587 13.0193 13.9587 10.8332H12.7086C12.7086 12.3289 11.4961 13.5415 10.0003 13.5415V14.7915ZM13.9587 10.8332C13.9587 8.64704 12.1865 6.87482 10.0003 6.87482V8.12485C11.4961 8.12485 12.7086 9.3374 12.7086 10.8332H13.9587ZM10.0003 6.87482C7.81419 6.87482 6.04198 8.64704 6.04198 10.8332H7.292C7.292 9.3374 8.50456 8.12485 10.0003 8.12485V6.87482Z" fill="#666666"/>
<path d="M14.167 6.66732C14.167 7.12755 14.5401 7.50065 15.0003 7.50065C15.4606 7.50065 15.8337 7.12755 15.8337 6.66732C15.8337 6.20708 15.4606 5.83398 15.0003 5.83398C14.5401 5.83398 14.167 6.20708 14.167 6.66732Z" fill="#666666"/>
</svg>
