<svg width="64" height="64" viewBox="0 0 64 64" fill="none" xmlns="http://www.w3.org/2000/svg">
<path d="M47.9997 44.5341C53.9888 43.9394 58.6663 38.8863 58.6663 32.7407C58.6663 25.613 52.1203 20.0066 45.119 21.0093C45.1076 21.0109 45.0964 21.0051 45.0912 20.9948C42.4135 15.6607 36.8933 12 30.5182 12C22.0257 12 15.0504 18.4962 14.2905 26.7906C14.2893 26.8044 14.2776 26.815 14.2637 26.815C9.40518 26.8108 5.33301 30.8282 5.33301 35.7037C5.33301 40.6129 9.3127 44.5926 14.2219 44.5926H15.9997" stroke="#C2C2C2" stroke-width="4" stroke-linecap="round"/>
<path d="M25.333 40.0006L31.0568 34.2768C31.5775 33.7561 32.4217 33.7561 32.9424 34.2768L38.6663 40.0006" stroke="#C2C2C2" stroke-width="4" stroke-linecap="round"/>
<path d="M32 36L32 52" stroke="#C2C2C2" stroke-width="4" stroke-linecap="round"/>
</svg>
