<svg width="25" height="24" viewBox="0 0 25 24" fill="none" xmlns="http://www.w3.org/2000/svg">
<circle cx="12.6719" cy="12" r="10" stroke="#1BA4ED" stroke-width="1.5"/>
<path d="M15.5438 9.33332C15.4451 9.08492 15.2927 8.85902 15.099 8.66666C14.687 8.25749 14.0883 8 13.4219 8H11.6803C10.5711 8 9.67188 8.79929 9.67188 9.78526C9.67188 10.6242 10.3291 11.35 11.2511 11.5293L13.9027 12.0449C14.9356 12.2457 15.6719 13.0594 15.6719 13.9993C15.6719 15.1038 14.6645 16 13.4219 16H11.9219C10.9422 16 10.1088 15.4435 9.79991 14.6667" stroke="#1BA4ED" stroke-width="1.5" stroke-linecap="round" stroke-linejoin="round"/>
<path d="M13.4219 6C13.4219 5.58579 13.0861 5.25 12.6719 5.25C12.2577 5.25 11.9219 5.58579 11.9219 6H13.4219ZM12.6719 8H13.4219V6H12.6719H11.9219V8H12.6719Z" fill="#1BA4ED"/>
<path d="M13.4219 18C13.4219 18.4142 13.0861 18.75 12.6719 18.75C12.2577 18.75 11.9219 18.4142 11.9219 18H13.4219ZM12.6719 16H13.4219V18H12.6719H11.9219V16H12.6719Z" fill="#1BA4ED"/>
</svg>
