<svg width="24" height="24" viewBox="0 0 24 24" fill="none" xmlns="http://www.w3.org/2000/svg">
<circle cx="12" cy="12" r="10" stroke="#666666" stroke-width="1.5"/>
<path d="M14.872 9.33332C14.7732 9.08492 14.6208 8.85902 14.4271 8.66666C14.0151 8.25749 13.4164 8 12.75 8H11.0084C9.8992 8 9 8.79929 9 9.78526C9 10.6242 9.6572 11.35 10.5792 11.5293L13.2308 12.0449C14.2638 12.2457 15 13.0594 15 13.9993C15 15.1038 13.9926 16 12.75 16H11.25C10.2703 16 9.43691 15.4435 9.12803 14.6667" stroke="#666666" stroke-width="1.5" stroke-linecap="round" stroke-linejoin="round"/>
<path d="M12.75 6C12.75 5.58579 12.4142 5.25 12 5.25C11.5858 5.25 11.25 5.58579 11.25 6H12.75ZM12.75 8V6H11.25V8H12.75Z" fill="#666666"/>
<path d="M12.75 18C12.75 18.4142 12.4142 18.75 12 18.75C11.5858 18.75 11.25 18.4142 11.25 18H12.75ZM12.75 16V18H11.25V16H12.75Z" fill="#666666"/>
</svg>
