<svg width="24" height="24" viewBox="0 0 24 24" fill="none" xmlns="http://www.w3.org/2000/svg">
<circle cx="3" cy="3" r="3" transform="matrix(-1 0 0 1 15 9)" stroke="#1BA4ED" stroke-width="1.5"/>
<path d="M11.9991 2V1.25H11.9991L11.9991 2ZM16.5001 4.9375L16.1251 5.58702L16.1252 5.58707L16.5001 4.9375ZM16.5001 19.0625L16.1252 18.413L16.1251 18.413L16.5001 19.0625ZM11.9991 22L11.9991 22.75H11.9991V22ZM7.49913 19.0625L7.87413 18.413L7.87408 18.413L7.49913 19.0625ZM7.49913 4.9375L7.87405 5.58707L7.87413 5.58702L7.49913 4.9375ZM9.53499 2.30556L9.35084 1.57852L9.53499 2.30556ZM2.90727 9.68652L2.43009 10.2651L2.90727 9.68652ZM2.5577 8.70678L1.84951 8.45987L2.5577 8.70678ZM5.31597 18.7418L5.4879 19.4718L5.31597 18.7418ZM4.40862 18.5048L4.97787 18.0165L4.40862 18.5048ZM9.53483 21.6935L9.35044 22.4205L9.53483 21.6935ZM8.91928 20.9838L8.18849 21.1525L8.91928 20.9838ZM15.0791 20.9838L15.8098 21.1527L15.0791 20.9838ZM14.4634 21.6935L14.6477 22.4205L14.4634 21.6935ZM19.5896 18.505L19.0204 18.0166L19.5896 18.505ZM18.6825 18.742L18.8543 18.0119L18.6825 18.742ZM21.4415 8.70678L20.7333 8.95376L21.4415 8.70678ZM21.0919 9.68646L20.6149 9.10774L21.0919 9.68646ZM2.90714 14.3126L2.43005 13.7339L2.90714 14.3126ZM18.6825 5.25718L18.5104 4.5272L18.6825 5.25718ZM19.5896 5.49398L19.0204 5.98241L19.5896 5.49398ZM4.4086 5.49419L3.83936 5.00586L4.4086 5.49419ZM21.092 14.3127L21.569 13.7339L21.092 14.3127ZM21.4416 15.2921L20.7334 15.0452L21.4416 15.2921ZM15.079 3.01539L14.3482 3.18413L15.079 3.01539ZM11.9991 2V2.75C12.7868 2.75 13.5506 2.84814 14.2791 3.03262L14.4632 2.30558L14.6473 1.57853C13.7994 1.36378 12.9118 1.25 11.9991 1.25V2ZM15.079 3.01539L14.3482 3.18413C14.5734 4.15949 15.1875 5.04567 16.1251 5.58702L16.5001 4.9375L16.8751 4.28798C16.3134 3.96368 15.9455 3.43468 15.8098 2.84664L15.079 3.01539ZM16.5001 4.9375L16.1252 5.58707C16.9857 6.08374 17.9609 6.19789 18.8546 5.98716L18.6825 5.25718L18.5104 4.5272C17.9718 4.6542 17.39 4.58517 16.875 4.28793L16.5001 4.9375ZM19.5896 5.49398L19.0204 5.98241C19.7644 6.84934 20.3499 7.85426 20.7333 8.95376L21.4415 8.70678L22.1497 8.4598C21.7034 7.18009 21.0224 6.012 20.1587 5.00555L19.5896 5.49398ZM21.0919 9.68646L20.6149 9.10774C19.7828 9.7936 19.2491 10.8341 19.2491 12H19.9991H20.7491C20.7491 11.302 21.0669 10.679 21.569 10.2652L21.0919 9.68646ZM19.9991 12H19.2491C19.2491 13.166 19.7832 14.2059 20.6151 14.8915L21.092 14.3127L21.569 13.7339C21.0669 13.3201 20.7491 12.6977 20.7491 12H19.9991ZM21.4416 15.2921L20.7334 15.0452C20.35 16.1447 19.7644 17.1495 19.0204 18.0166L19.5896 18.505L20.1587 18.9934C21.0224 17.987 21.7035 16.8189 22.1498 15.539L21.4416 15.2921ZM18.6825 18.742L18.8543 18.0119C17.9604 17.8015 16.9853 17.9164 16.1252 18.413L16.5001 19.0625L16.8751 19.712C17.3903 19.4146 17.9722 19.3453 18.5106 19.472L18.6825 18.742ZM16.5001 19.0625L16.1251 18.413C15.1878 18.9542 14.5737 19.8398 14.3483 20.8149L15.0791 20.9838L15.8098 21.1527C15.9457 20.565 16.3134 20.0363 16.8751 19.712L16.5001 19.0625ZM14.4634 21.6935L14.279 20.9665C13.5503 21.1513 12.7865 21.25 11.9991 21.25V22V22.75C12.9123 22.75 13.7999 22.6355 14.6477 22.4205L14.4634 21.6935ZM11.9991 22L11.9992 21.25C11.2115 21.25 10.4479 21.1514 9.71922 20.9665L9.53483 21.6935L9.35044 22.4205C10.1984 22.6356 11.0858 22.75 11.9991 22.75L11.9991 22ZM8.91928 20.9838L9.65006 20.8152C9.42503 19.8402 8.81177 18.9543 7.87413 18.413L7.49913 19.0625L7.12413 19.712C7.68553 20.0361 8.0528 20.5646 8.18849 21.1525L8.91928 20.9838ZM7.49913 19.0625L7.87408 18.413C7.0138 17.9164 6.03831 17.8012 5.14403 18.0118L5.31597 18.7418L5.4879 19.4718C6.02638 19.345 6.60866 19.4145 7.12418 19.712L7.49913 19.0625ZM4.40862 18.5048L4.97787 18.0165C4.23421 17.1496 3.64908 16.1447 3.26581 15.0452L2.55761 15.2921L1.8494 15.539C2.29545 16.8186 2.97595 17.9866 3.83937 18.9931L4.40862 18.5048ZM2.90714 14.3126L3.38423 14.8913C4.21602 14.2055 4.74913 13.1656 4.74913 12H3.99913H3.24913C3.24913 12.698 2.9317 13.3203 2.43005 13.7339L2.90714 14.3126ZM3.99913 12H4.74913C4.74913 10.8345 4.21637 9.79397 3.38445 9.1079L2.90727 9.68652L2.43009 10.2651C2.93166 10.6788 3.24913 11.3017 3.24913 12H3.99913ZM2.5577 8.70678L3.26589 8.9537C3.64923 7.85425 4.23427 6.84928 4.97784 5.98252L4.4086 5.49419L3.83936 5.00586C2.97595 6.01233 2.29558 7.18048 1.84951 8.45987L2.5577 8.70678ZM5.31593 5.25735L5.14374 5.98731C6.0378 6.19822 7.01341 6.0838 7.87405 5.58707L7.49913 4.9375L7.12422 4.28793C6.60896 4.58532 6.02682 4.65446 5.48813 4.52738L5.31593 5.25735ZM7.49913 4.9375L7.87413 5.58702C8.81207 5.0455 9.42531 4.15907 9.65019 3.18387L8.91937 3.01534L8.18855 2.84682C8.05291 3.43504 7.68555 3.96384 7.12413 4.28798L7.49913 4.9375ZM9.53499 2.30556L9.71915 3.0326C10.4475 2.8481 11.2113 2.75003 11.9992 2.75L11.9991 2L11.9991 1.25C11.0864 1.25004 10.1989 1.36371 9.35084 1.57852L9.53499 2.30556ZM8.91937 3.01534L9.65019 3.18387C9.66569 3.11666 9.69201 3.06928 9.71241 3.04446C9.72992 3.02315 9.733 3.02909 9.71915 3.0326L9.53499 2.30556L9.35084 1.57852C8.65997 1.75351 8.30307 2.35019 8.18855 2.84682L8.91937 3.01534ZM2.90727 9.68652L3.38445 9.1079C3.32374 9.05784 3.28849 9.00371 3.27435 8.96753C3.26246 8.9371 3.27121 8.93845 3.26589 8.9537L2.5577 8.70678L1.84951 8.45987C1.58412 9.22104 1.99528 9.90655 2.43009 10.2651L2.90727 9.68652ZM5.31597 18.7418L5.14403 18.0118C5.07715 18.0275 5.02319 18.0249 4.99194 18.0176C4.96507 18.0114 4.96877 18.0059 4.97787 18.0165L4.40862 18.5048L3.83937 18.9931C4.3019 19.5323 4.9925 19.5885 5.4879 19.4718L5.31597 18.7418ZM9.53483 21.6935L9.71922 20.9665C9.733 20.97 9.72986 20.9759 9.71232 20.9546C9.6919 20.9297 9.66557 20.8824 9.65006 20.8152L8.91928 20.9838L8.18849 21.1525C8.30309 21.649 8.65994 22.2454 9.35044 22.4205L9.53483 21.6935ZM15.0791 20.9838L14.3483 20.8149C14.3328 20.8822 14.3064 20.9296 14.286 20.9545C14.2684 20.9759 14.2652 20.97 14.279 20.9665L14.4634 21.6935L14.6477 22.4205C15.3383 22.2454 15.6951 21.649 15.8098 21.1527L15.0791 20.9838ZM19.5896 18.505L19.0204 18.0166C19.0295 18.006 19.0331 18.0115 19.0063 18.0177C18.9751 18.025 18.9212 18.0277 18.8543 18.0119L18.6825 18.742L18.5106 19.472C19.006 19.5886 19.6963 19.5323 20.1587 18.9934L19.5896 18.505ZM21.4415 8.70678L20.7333 8.95376C20.728 8.9385 20.7368 8.93711 20.7249 8.9675C20.7108 9.00364 20.6755 9.05773 20.6149 9.10774L21.0919 9.68646L21.569 10.2652C22.004 9.90661 22.4152 9.22101 22.1497 8.4598L21.4415 8.70678ZM2.55761 15.2921L3.26581 15.0452C3.27113 15.0605 3.26238 15.0619 3.27425 15.0315C3.28837 14.9954 3.32359 14.9413 3.38423 14.8913L2.90714 14.3126L2.43005 13.7339C1.99514 14.0925 1.5841 14.7779 1.8494 15.539L2.55761 15.2921ZM18.6825 5.25718L18.8546 5.98716C18.9214 5.97142 18.9752 5.97403 19.0064 5.9813C19.0332 5.98755 19.0295 5.99299 19.0204 5.98241L19.5896 5.49398L20.1587 5.00555C19.6963 4.46667 19.0059 4.41035 18.5104 4.5272L18.6825 5.25718ZM4.4086 5.49419L4.97784 5.98252C4.96873 5.99313 4.96502 5.98769 4.99184 5.98144C5.02305 5.97416 5.07694 5.97155 5.14374 5.98731L5.31593 5.25735L5.48813 4.52738C4.99259 4.41049 4.30191 4.46666 3.83936 5.00586L4.4086 5.49419ZM21.092 14.3127L20.6151 14.8915C20.6757 14.9414 20.7109 14.9954 20.725 15.0315C20.7368 15.0618 20.7281 15.0604 20.7334 15.0452L21.4416 15.2921L22.1498 15.539C22.4152 14.7779 22.0041 14.0924 21.569 13.7339L21.092 14.3127ZM14.4632 2.30558L14.2791 3.03262C14.2652 3.02912 14.2683 3.02318 14.2859 3.04453C14.3063 3.0694 14.3327 3.11684 14.3482 3.18413L15.079 3.01539L15.8098 2.84664C15.6951 2.3502 15.3382 1.7535 14.6473 1.57853L14.4632 2.30558Z" fill="#1BA4ED"/>
</svg>
