<svg width="20" height="20" viewBox="0 0 20 20" fill="none" xmlns="http://www.w3.org/2000/svg">
<path d="M4.70545 7.51189C4.06171 6.65357 4.67415 5.42871 5.74705 5.42871H14.2534C15.3263 5.42871 15.9387 6.65357 15.295 7.51189V7.51189C14.8254 8.13792 14.5716 8.89934 14.5716 9.68188V14.5716C14.5716 16.2547 13.2072 17.6192 11.524 17.6192H8.4764C6.79325 17.6192 5.42878 16.2547 5.42878 14.5716V9.68188C5.42878 8.89934 5.17497 8.13792 4.70545 7.51189V7.51189Z" stroke="#444444" stroke-width="1.14286"/>
<path d="M11.5244 13.8097L11.5244 9.23828" stroke="#444444" stroke-width="1.14286" stroke-linecap="round" stroke-linejoin="round"/>
<path d="M8.47607 13.8097L8.47607 9.23828" stroke="#444444" stroke-width="1.14286" stroke-linecap="round" stroke-linejoin="round"/>
<path d="M13.0479 5.42878L12.6333 4.185C12.4259 3.56277 11.8436 3.14307 11.1877 3.14307H8.81284C8.15695 3.14307 7.57464 3.56277 7.36723 4.185L6.95264 5.42878" stroke="#444444" stroke-width="1.14286" stroke-linecap="round"/>
</svg>
