<svg width="24" height="24" viewBox="0 0 24 24" fill="none" xmlns="http://www.w3.org/2000/svg">
<path d="M9.53509 19.016L9.26216 18.3174L9.53509 19.016ZM5.47869 19.7949L5.10369 20.4444L5.10369 20.4444L5.47869 19.7949ZM4.12507 15.8925L3.38362 16.0054L4.12507 15.8925ZM4.61537 13.2902L5.26489 13.6652L4.61537 13.2902ZM4.03122 14.5275L3.29419 14.3886H3.29419L4.03122 14.5275ZM11.5436 17.2902L12.1931 17.6652L11.5436 17.2902ZM10.7641 18.4147L11.2529 18.9836H11.2529L10.7641 18.4147ZM8.41381 6.71112L7.76429 6.33612L8.41381 6.71112ZM19.4138 20.997C19.828 20.997 20.1638 20.6612 20.1638 20.247C20.1638 19.8328 19.828 19.497 19.4138 19.497V20.997ZM13.4138 19.497C12.9996 19.497 12.6638 19.8328 12.6638 20.247C12.6638 20.6612 12.9996 20.997 13.4138 20.997V19.497ZM15.342 10.7111L14.6925 10.3361L10.8941 16.9152L11.5436 17.2902L12.1931 17.6652L15.9915 11.0861L15.342 10.7111ZM4.61537 13.2902L5.26489 13.6652L9.06333 7.08612L8.41381 6.71112L7.76429 6.33612L3.96585 12.9152L4.61537 13.2902ZM9.53509 19.016L9.26216 18.3174C8.16569 18.7458 7.41893 19.0355 6.84245 19.1702C6.28558 19.3003 6.03288 19.2488 5.85369 19.1454L5.47869 19.7949L5.10369 20.4444C5.75696 20.8216 6.45783 20.8005 7.18371 20.6309C7.89 20.4659 8.7552 20.1259 9.80802 19.7145L9.53509 19.016ZM4.12507 15.8925L3.38362 16.0054C3.55381 17.1228 3.69195 18.0421 3.90219 18.7363C4.11826 19.4497 4.45042 20.0672 5.10369 20.4444L5.47869 19.7949L5.85369 19.1454C5.67449 19.0419 5.50356 18.8488 5.3378 18.3015C5.1662 17.7349 5.04377 16.9433 4.86652 15.7796L4.12507 15.8925ZM4.61537 13.2902L3.96585 12.9152C3.64403 13.4726 3.38636 13.8994 3.29419 14.3886L4.03122 14.5275L4.76825 14.6663C4.8022 14.4861 4.89193 14.3112 5.26489 13.6652L4.61537 13.2902ZM4.12507 15.8925L4.86652 15.7796C4.75421 15.0421 4.7343 14.8465 4.76825 14.6663L4.03122 14.5275L3.29419 14.3886C3.20201 14.8778 3.28671 15.3691 3.38362 16.0054L4.12507 15.8925ZM11.5436 17.2902L10.8941 16.9152C10.5211 17.5612 10.4145 17.7264 10.2754 17.8459L10.7641 18.4147L11.2529 18.9836C11.6305 18.6591 11.8713 18.2226 12.1931 17.6652L11.5436 17.2902ZM9.53509 19.016L9.80802 19.7145C10.4075 19.4803 10.8753 19.308 11.2529 18.9836L10.7641 18.4147L10.2754 17.8459C10.1363 17.9654 9.95693 18.0459 9.26216 18.3174L9.53509 19.016ZM13.8779 5.24702L13.5029 5.89654C14.3378 6.37855 14.8978 6.7037 15.2836 7.00146C15.6522 7.28593 15.7697 7.47753 15.8174 7.65555L16.5418 7.46143L17.2663 7.26732C17.0995 6.64514 16.7015 6.20094 16.2 5.81395C15.7158 5.44025 15.051 5.0583 14.2529 4.5975L13.8779 5.24702ZM15.342 10.7111L15.9915 11.0861C16.4523 10.288 16.837 9.62484 17.0696 9.05909C17.3104 8.4732 17.433 7.8895 17.2663 7.26732L16.5418 7.46143L15.8174 7.65555C15.8651 7.83356 15.8592 8.05821 15.6822 8.48887C15.4969 8.93966 15.1745 9.50126 14.6925 10.3361L15.342 10.7111ZM13.8779 5.24702L14.2529 4.5975C13.4548 4.1367 12.7916 3.75199 12.2259 3.51947C11.64 3.27867 11.0563 3.15606 10.4341 3.32278L10.6282 4.04722L10.8223 4.77166C11.0003 4.72396 11.225 4.72986 11.6557 4.90686C12.1065 5.09213 12.668 5.41453 13.5029 5.89654L13.8779 5.24702ZM8.41381 6.71112L9.06333 7.08612C9.54533 6.25126 9.87049 5.69126 10.1683 5.30541C10.4527 4.93679 10.6443 4.81936 10.8223 4.77166L10.6282 4.04722L10.4341 3.32278C9.81192 3.48949 9.36773 3.88752 8.98073 4.389C8.60704 4.87325 8.22509 5.53799 7.76429 6.33612L8.41381 6.71112ZM15.342 10.7111L15.717 10.0616L8.78881 6.0616L8.41381 6.71112L8.03881 7.36064L14.967 11.3606L15.342 10.7111ZM19.4138 20.247V19.497H13.4138V20.247V20.997H19.4138V20.247Z" fill="#1BA4ED"/>
</svg>
