<svg width="20" height="20" viewBox="0 0 20 20" fill="none" xmlns="http://www.w3.org/2000/svg">
<path d="M6.78516 4.21404L9.05639 1.94281C9.57709 1.42211 10.4213 1.42211 10.942 1.94281L13.2132 4.21404" stroke="#0F80BD" stroke-width="2" stroke-linecap="round"/>
<path d="M10 2.28235L10 9.99609" stroke="#0F80BD" stroke-width="2" stroke-linecap="round"/>
<path d="M15.786 6.78516L18.0572 9.05639C18.5779 9.57709 18.5779 10.4213 18.0572 10.942L15.786 13.2132" stroke="#0F80BD" stroke-width="2" stroke-linecap="round"/>
<path d="M17.7177 10L10.0039 10" stroke="#0F80BD" stroke-width="2" stroke-linecap="round"/>
<path d="M13.2188 15.786L10.9475 18.0572C10.4268 18.5779 9.5826 18.5779 9.0619 18.0572L6.79067 15.786" stroke="#0F80BD" stroke-width="2" stroke-linecap="round"/>
<path d="M10.0039 17.7177L10.0039 10.0039" stroke="#0F80BD" stroke-width="2" stroke-linecap="round"/>
<path d="M4.21404 13.2148L1.94281 10.9436C1.42211 10.4229 1.42211 9.57869 1.94281 9.05799L4.21404 6.78676" stroke="#0F80BD" stroke-width="2" stroke-linecap="round"/>
<path d="M2.28235 10.0039L9.99609 10.0039" stroke="#0F80BD" stroke-width="2" stroke-linecap="round"/>
</svg>
