<svg width="24" height="25" viewBox="0 0 24 25" fill="none" xmlns="http://www.w3.org/2000/svg">
<path d="M12.75 8.5C12.75 8.08579 12.4142 7.75 12 7.75C11.5858 7.75 11.25 8.08579 11.25 8.5H12.75ZM9 12.75C8.58579 12.75 8.25 13.0858 8.25 13.5C8.25 13.9142 8.58579 14.25 9 14.25V12.75ZM12 12H11.25H12ZM11.25 8.5L11.25 12L12.75 12L12.75 8.5H11.25ZM21.25 12.5C21.25 17.6086 17.1086 21.75 12 21.75V23.25C17.9371 23.25 22.75 18.4371 22.75 12.5H21.25ZM12 21.75C6.89137 21.75 2.75 17.6086 2.75 12.5H1.25C1.25 18.4371 6.06294 23.25 12 23.25V21.75ZM2.75 12.5C2.75 7.39137 6.89137 3.25 12 3.25V1.75C6.06294 1.75 1.25 6.56294 1.25 12.5H2.75ZM12 3.25C17.1086 3.25 21.25 7.39137 21.25 12.5H22.75C22.75 6.56294 17.9371 1.75 12 1.75V3.25ZM9 14.25H10.5V12.75H9V14.25ZM11.25 12C11.25 12.4142 10.9142 12.75 10.5 12.75V14.25C11.7426 14.25 12.75 13.2426 12.75 12L11.25 12Z" fill="#ED8C19"/>
</svg>
