<svg width="20" height="21" viewBox="0 0 20 21" fill="none" xmlns="http://www.w3.org/2000/svg">
<path d="M7.94526 16.3486L7.71782 15.7664L7.94526 16.3486ZM4.56492 16.9977L4.25242 17.539L4.25242 17.539L4.56492 16.9977ZM3.43691 13.7457L2.81903 13.8398L3.43691 13.7457ZM3.84549 11.5771L4.38675 11.8896L3.84549 11.5771ZM3.3587 12.6082L2.7445 12.4925H2.7445L3.3587 12.6082ZM9.61899 14.9105L10.1603 15.223L9.61899 14.9105ZM8.96947 15.8476L9.37678 16.3216H9.37678L8.96947 15.8476ZM7.01085 6.09455L6.46959 5.78205V5.78205L7.01085 6.09455ZM16.1775 17.9995C16.5227 17.9995 16.8025 17.7196 16.8025 17.3745C16.8025 17.0293 16.5227 16.7495 16.1775 16.7495V17.9995ZM11.1775 16.7495C10.8323 16.7495 10.5525 17.0293 10.5525 17.3745C10.5525 17.7196 10.8323 17.9995 11.1775 17.9995V16.7495ZM12.2431 9.11539L9.07773 14.598L10.1603 15.223L13.3256 9.74039L12.2431 9.11539ZM4.38675 11.8896L7.55212 6.40705L6.46959 5.78205L3.30422 11.2646L4.38675 11.8896ZM7.71782 15.7664C6.80409 16.1234 6.18179 16.3649 5.70139 16.4771C5.23733 16.5856 5.02675 16.5426 4.87742 16.4564L4.25242 17.539C4.79682 17.8533 5.38087 17.8357 5.98578 17.6944C6.57435 17.5568 7.29535 17.2735 8.1727 16.9307L7.71782 15.7664ZM2.81903 13.8398C2.96086 14.771 3.07598 15.5371 3.25118 16.1155C3.43124 16.7101 3.70803 17.2247 4.25242 17.539L4.87742 16.4564C4.72809 16.3702 4.58565 16.2093 4.44751 15.7532C4.30451 15.2811 4.20249 14.6214 4.05478 13.6516L2.81903 13.8398ZM3.30422 11.2646C3.03604 11.7291 2.82132 12.0848 2.7445 12.4925L3.97289 12.7239C4.00119 12.5737 4.07596 12.4279 4.38675 11.8896L3.30422 11.2646ZM4.05478 13.6516C3.96119 13.0371 3.9446 12.8741 3.97289 12.7239L2.7445 12.4925C2.66769 12.9001 2.73827 13.3095 2.81903 13.8398L4.05478 13.6516ZM9.07773 14.598C8.76693 15.1363 8.67806 15.2739 8.56216 15.3735L9.37678 16.3216C9.69145 16.0512 9.89207 15.6875 10.1603 15.223L9.07773 14.598ZM8.1727 16.9307C8.67229 16.7355 9.06212 16.592 9.37678 16.3216L8.56216 15.3735C8.44625 15.4731 8.29679 15.5402 7.71782 15.7664L8.1727 16.9307ZM11.2518 5.41574C11.9475 5.81741 12.4142 6.08837 12.7357 6.33651C13.0429 6.57356 13.1407 6.73323 13.1805 6.88158L14.3879 6.55805C14.249 6.03957 13.9173 5.6694 13.4994 5.34691C13.0958 5.0355 12.5419 4.71721 11.8768 4.3332L11.2518 5.41574ZM13.3256 9.74039C13.7096 9.07528 14.0302 8.52266 14.224 8.05119C14.4247 7.56295 14.5268 7.07654 14.3879 6.55805L13.1805 6.88158C13.2202 7.02992 13.2153 7.21713 13.0678 7.57601C12.9134 7.95167 12.6448 8.41967 12.2431 9.11539L13.3256 9.74039ZM11.8768 4.3332C11.2117 3.9492 10.659 3.62861 10.1876 3.43484C9.69934 3.23418 9.21292 3.132 8.69444 3.27093L9.01796 4.47834C9.16631 4.43859 9.35351 4.4435 9.7124 4.591C10.0881 4.7454 10.5561 5.01406 11.2518 5.41574L11.8768 4.3332ZM7.55212 6.40705C7.95379 5.71134 8.22476 5.24467 8.47289 4.92312C8.70994 4.61594 8.86961 4.51809 9.01796 4.47834L8.69444 3.27093C8.17595 3.40986 7.80579 3.74155 7.48329 4.15945C7.17188 4.56299 6.85359 5.11694 6.46959 5.78205L7.55212 6.40705ZM13.0969 8.88662L7.32335 5.55329L6.69835 6.63582L12.4719 9.96915L13.0969 8.88662ZM16.1775 16.7495H11.1775V17.9995H16.1775V16.7495Z" fill="#1BA4ED"/>
</svg>
