<svg width="20" height="21" viewBox="0 0 20 21" fill="none" xmlns="http://www.w3.org/2000/svg">
<path d="M7.5013 8.0013L7.78072 7.16304C8.36705 5.40407 10.6876 5.02749 11.8001 6.51078C12.4517 7.37966 12.4063 8.58609 11.6911 9.40346L10.9251 10.2789C10.3295 10.9595 10.0013 11.8331 10.0013 12.7375V13.0013M18.3346 10.5013C18.3346 15.1037 14.6037 18.8346 10.0013 18.8346C5.39893 18.8346 1.66797 15.1037 1.66797 10.5013C1.66797 5.89893 5.39893 2.16797 10.0013 2.16797C14.6037 2.16797 18.3346 5.89893 18.3346 10.5013Z" stroke="#00C7BE" stroke-width="1.25" stroke-linecap="round"/>
<path d="M10.001 15.085C10.231 15.085 10.4178 15.271 10.418 15.501C10.418 15.7311 10.2311 15.918 10.001 15.918C9.77101 15.9178 9.58496 15.731 9.58496 15.501C9.58514 15.2711 9.77112 15.0851 10.001 15.085Z" fill="#2D264B" stroke="#00C7BE" stroke-width="0.833335"/>
</svg>
