<svg width="16" height="17" viewBox="0 0 16 17" fill="none" xmlns="http://www.w3.org/2000/svg">
<path d="M14.6431 7.67839L11.8306 10.1053L12.6875 13.7346C12.7347 13.9317 12.7226 14.1383 12.6525 14.3284C12.5824 14.5185 12.4575 14.6836 12.2937 14.8027C12.1298 14.9219 11.9343 14.9899 11.7319 14.998C11.5294 15.0061 11.3291 14.9541 11.1562 14.8484L7.99996 12.9059L4.84184 14.8484C4.66898 14.9534 4.4689 15.005 4.2668 14.9966C4.0647 14.9882 3.8696 14.9201 3.70609 14.801C3.54257 14.682 3.41795 14.5172 3.3479 14.3274C3.27786 14.1376 3.26553 13.9314 3.31246 13.7346L4.17246 10.1053L1.35996 7.67839C1.20702 7.54621 1.09641 7.3719 1.04195 7.17723C0.987486 6.98256 0.99158 6.77616 1.05372 6.58381C1.11586 6.39145 1.23329 6.22167 1.39135 6.09565C1.54941 5.96964 1.7411 5.89299 1.94246 5.87527L5.62996 5.57776L7.05246 2.13526C7.12946 1.94765 7.26051 1.78717 7.42894 1.67423C7.59738 1.56128 7.7956 1.50098 7.9984 1.50098C8.2012 1.50098 8.39942 1.56128 8.56786 1.67423C8.73629 1.78717 8.86734 1.94765 8.94434 2.13526L10.3662 5.57776L14.0537 5.87527C14.2555 5.89233 14.4477 5.96856 14.6064 6.09439C14.765 6.22023 14.883 6.39009 14.9455 6.58267C15.008 6.77526 15.0123 6.98202 14.9579 7.17705C14.9034 7.37207 14.7926 7.54669 14.6393 7.67902L14.6431 7.67839Z" fill="#FFE066"/>
</svg>
